# xmcd
#
# Track frame offsets: 
#        150
#        14487
#        28494
#        43283
#        57492
#        74139
#        89499
#        109296
#        127195
#        148639
#        160263
#        176812
#        191940
#        210412
#
# Disc length: 3007 seconds
#
# Revision: 2
# Processed by: cddbd v1.5.2PL0 Copyright (c) Steve Scherf et al.
# Submitted via: ExactAudioCopy v1.3
#
DISCID=e90bbd0e
DTITLE=B. J. Thomas - Greatest and Latest
DYEAR=2002
DGENRE=Country
TTITLE0=Hooked On A Feeling
TTITLE1=Raindrops Keep Falling On My Head
TTITLE2=I Just Can't Help Believing
TTITLE3=I'm So Lonesome (I Could Cry)
TTITLE4=Another Somebody Done Somebody Wrong Song
TTITLE5=No Love At All
TTITLE6=Rock And Roll Lullaby
TTITLE7=Back Against The Wall
TTITLE8=No Other Baby
TTITLE9=To Be Loved
TTITLE10=What's Forever For
TTITLE11=Call It A Mountain
TTITLE12=Best Thing That Ever Happened To Me
TTITLE13=Ballyhoo Days
EXTD=
EXTT0=
EXTT1=
EXTT2=
EXTT3=
EXTT4=
EXTT5=
EXTT6=
EXTT7=
EXTT8=
EXTT9=
EXTT10=
EXTT11=
EXTT12=
EXTT13=
PLAYORDER=
